<svg width="26" height="26" viewBox="0 0 26 26" fill="none" xmlns="http://www.w3.org/2000/svg">
<path d="M24.5 0.5H1.5C0.946875 0.5 0.5 0.946875 0.5 1.5V24.5C0.5 25.0531 0.946875 25.5 1.5 25.5H24.5C25.0531 25.5 25.5 25.0531 25.5 24.5V1.5C25.5 0.946875 25.0531 0.5 24.5 0.5ZM23.5 23.5H17.7469V15.8188H20.9969L21.4844 12.0469H17.7469V9.6375C17.7469 8.54375 18.05 7.8 19.6156 7.8H21.6125V4.425C21.2656 4.37813 20.0813 4.275 18.7 4.275C15.8188 4.275 13.8469 6.03437 13.8469 9.2625V12.0437H10.5906V15.8156H13.85V23.5H2.5V2.5H23.5V23.5Z" fill="black"/>
</svg>
