<svg width="26" height="26" viewBox="0 0 26 26" fill="none" xmlns="http://www.w3.org/2000/svg">
<path d="M12.9999 6.59097C9.45303 6.59097 6.59053 9.45347 6.59053 13.0003C6.59053 16.5472 9.45303 19.4097 12.9999 19.4097C16.5468 19.4097 19.4093 16.5472 19.4093 13.0003C19.4093 9.45347 16.5468 6.59097 12.9999 6.59097ZM12.9999 17.166C10.7062 17.166 8.83428 15.2941 8.83428 13.0003C8.83428 10.7066 10.7062 8.83472 12.9999 8.83472C15.2937 8.83472 17.1655 10.7066 17.1655 13.0003C17.1655 15.2941 15.2937 17.166 12.9999 17.166ZM19.6718 4.83472C18.8437 4.83472 18.1749 5.50347 18.1749 6.33159C18.1749 7.15972 18.8437 7.82847 19.6718 7.82847C20.4999 7.82847 21.1687 7.16284 21.1687 6.33159C21.1689 6.13495 21.1304 5.94019 21.0552 5.75847C20.9801 5.57675 20.8698 5.41164 20.7308 5.27259C20.5917 5.13355 20.4266 5.0233 20.2449 4.94816C20.0632 4.87302 19.8684 4.83447 19.6718 4.83472ZM25.4937 13.0003C25.4937 11.2753 25.5093 9.56597 25.4124 7.84409C25.3155 5.84409 24.8593 4.06909 23.3968 2.60659C21.9312 1.14097 20.1593 0.687844 18.1593 0.590969C16.4343 0.494094 14.7249 0.509719 13.003 0.509719C11.278 0.509719 9.56865 0.494094 7.84678 0.590969C5.84678 0.687844 4.07178 1.14409 2.60928 2.60659C1.14365 4.07222 0.690529 5.84409 0.593654 7.84409C0.496779 9.56909 0.512404 11.2785 0.512404 13.0003C0.512404 14.7222 0.496779 16.4347 0.593654 18.1566C0.690529 20.1566 1.14678 21.9316 2.60928 23.3941C4.0749 24.8597 5.84678 25.3128 7.84678 25.4097C9.57178 25.5066 11.2812 25.491 13.003 25.491C14.728 25.491 16.4374 25.5066 18.1593 25.4097C20.1593 25.3128 21.9343 24.8566 23.3968 23.3941C24.8624 21.9285 25.3155 20.1566 25.4124 18.1566C25.5124 16.4347 25.4937 14.7253 25.4937 13.0003ZM22.7437 20.3691C22.5155 20.9378 22.2405 21.3628 21.7999 21.8003C21.3593 22.241 20.9374 22.516 20.3687 22.7441C18.7249 23.3972 14.8218 23.2503 12.9999 23.2503C11.178 23.2503 7.27178 23.3972 5.62803 22.7472C5.05928 22.5191 4.63428 22.2441 4.19678 21.8035C3.75615 21.3628 3.48115 20.941 3.25303 20.3722C2.60303 18.7253 2.7499 14.8222 2.7499 13.0003C2.7499 11.1785 2.60303 7.27222 3.25303 5.62847C3.48115 5.05972 3.75615 4.63472 4.19678 4.19722C4.6374 3.75972 5.05928 3.48159 5.62803 3.25347C7.27178 2.60347 11.178 2.75034 12.9999 2.75034C14.8218 2.75034 18.728 2.60347 20.3718 3.25347C20.9405 3.48159 21.3655 3.75659 21.803 4.19722C22.2437 4.63784 22.5187 5.05972 22.7468 5.62847C23.3968 7.27222 23.2499 11.1785 23.2499 13.0003C23.2499 14.8222 23.3968 18.7253 22.7437 20.3691Z" fill="black"/>
</svg>
